<?xml version="1.0" encoding="UTF-8"?>
<svg width="179px" height="54px" viewBox="0 0 179 54" version="1.1" xmlns="http://www.w3.org/2000/svg" xmlns:xlink="http://www.w3.org/1999/xlink">
    <!-- Generator: Sketch 62 (91390) - https://sketch.com -->
    <title>HARMONIC_2CMYK</title>
    <desc>Created with Sketch.</desc>
    <defs>
        <polygon id="path-1" points="0.0171428571 0.170592593 17.8362857 0.170592593 17.8362857 46.9825926 0.0171428571 46.9825926"></polygon>
    </defs>
    <g id="Symbols" stroke="none" stroke-width="1" fill="none" fill-rule="evenodd">
        <g id="Atoms/Logo/Color">
            <g id="HARMONIC_2CMYK">
                <g id="Group-3" transform="translate(0.000000, 7.000000)">
                    <mask id="mask-2" fill="white">
                        <use xlink:href="#path-1"></use>
                    </mask>
                    <g id="Clip-2"></g>
                    <path d="M17.8294286,46.9997099 L17.8362857,20.2039074 C17.8362857,15.0135988 14.7922857,11.6916852 9.68,11.6916852 C7.14428571,11.6916852 4.97942857,12.579463 3.31771429,14.497179 L3.31771429,0.170592593 L0,0.170592593 L0,28.8382716 L3.31771429,28.8382716 L3.31771429,20.7681975 C3.31771429,16.7891543 5.57571429,14.6857593 8.99,14.6857593 C12.4002857,14.6857593 14.5194286,16.7427346 14.5194286,20.7681975 L14.5251429,43.3775185 C14.5251429,46.3312654 16.6085714,46.9997099 17.6662857,46.9997099 L17.8294286,46.9997099" id="Fill-1" fill="#002039" mask="url(#mask-2)"></path>
                </g>
                <path d="M117.155768,39.4418032 C115.546091,41.0024731 113.322365,42 110.479307,42 C107.642706,42 105.454496,41.0024731 103.843058,39.4418032 C101.4758,37.1196171 101,33.9716768 101,30.4980191 C101,27.033983 101.4758,23.8860426 103.843058,21.552537 C105.454496,20.0048846 107.642706,19 110.479307,19 C113.322365,19 115.546091,20.0048846 117.155768,21.552537 C119.524787,23.8860426 120,27.033983 120,30.4980191 C120,33.9716768 119.524787,37.1196171 117.155768,39.4418032 M114.744775,23.5603253 C113.654339,22.5163886 112.138002,21.9204193 110.479307,21.9204193 C108.825601,21.9204193 107.391744,22.5163886 106.306005,23.5603253 C104.597411,25.205891 104.412198,27.9904769 104.412198,30.4980191 C104.412198,33.0095231 104.597411,35.7952409 106.306005,37.4354299 C107.391744,38.4853093 108.825601,39.0824106 110.479307,39.0824106 C112.138002,39.0824106 113.654339,38.4853093 114.744775,37.4354299 C116.443976,35.7952409 116.587802,33.0095231 116.587802,30.4980191 C116.587802,27.9904769 116.443976,25.205891 114.744775,23.5603253" id="Fill-4" fill="#002039"></path>
                <path d="M132.999855,21.9466019 C136.449333,21.9466019 138.646478,23.9714449 138.646478,27.9788692 L138.646478,42 L142,42 L142,27.4266134 C142,24.8052541 141.257792,22.6864649 139.623083,21.1187893 C138.224217,19.7352941 136.21956,19 133.749,19 L132.251867,19 C129.78044,19 127.776072,19.7352941 126.377206,21.1187893 C124.742786,22.6864649 124,24.8052541 124,27.4266134 L124,42 L127.354389,42 L127.354389,27.9788692 C127.354389,23.9714449 129.550667,21.9466019 132.999855,21.9466019" id="Fill-5" fill="#002039"></path>
                <g id="Group-9" transform="translate(63.000000, 0.000000)">
                    <path d="M30.3298328,20.895863 C28.9322644,19.5020959 26.9294681,18.7613425 24.4606231,18.7613425 L22.9648784,18.7613425 C20.4963222,18.7613425 18.4935258,19.5020959 17.0962462,20.895863 C16.8389666,21.1446986 16.6059422,21.4090685 16.3925532,21.6855205 C16.1785866,21.4090685 15.9461398,21.1446986 15.6885714,20.895863 C14.2912918,19.5020959 12.2884954,18.7613425 9.81993921,18.7613425 L8.32419453,18.7613425 C5.85506079,18.7613425 3.85284195,19.5020959 2.4549848,20.895863 C0.822370821,22.4751781 0.0802735562,24.6096986 0.0802735562,27.2505205 L0.0802735562,41.9321096 L3.43097264,41.9321096 L3.43097264,27.8068767 C3.43097264,23.7696986 5.62579027,21.7298219 9.07177812,21.7298219 C12.5183435,21.7298219 14.7125836,23.7696986 14.7125836,27.8068767 L14.7125836,41.9321096 L18.0719453,41.9321096 L18.0719453,27.8068767 C18.0719453,23.7696986 20.2667629,21.7298219 23.7133283,21.7298219 C27.1590274,21.7298219 29.3535562,23.7696986 29.3535562,27.8068767 L29.3535562,41.9321096 L32.7074316,41.9321096 L32.7074316,27.2505205 C32.7074316,24.6096986 31.9636018,22.4751781 30.3298328,20.895863" id="Fill-6" fill="#002039"></path>
                    <path d="M80.4185106,7.33619178 C80.4185106,3.38272603 83.6317629,0.179506849 87.5995289,0.179506849 C91.5698936,0.179506849 94.7848784,3.38272603 94.7848784,7.33619178 C94.7848784,11.2887945 91.5698936,14.4914384 87.5995289,14.4914384 C83.6317629,14.4914384 80.4185106,11.2887945 80.4185106,7.33619178" id="Fill-8" fill="#00A8C8"></path>
                </g>
                <polyline id="Fill-10" fill="#FFFFFE" points="155 7.00082683 148 10 148 4 155 7.00082683"></polyline>
                <polygon id="Fill-11" fill="#002039" points="150 42 153 42 153 19 150 19"></polygon>
                <path d="M170.062425,38.8271568 C169.852471,38.8761135 169.705301,38.9038462 169.622644,38.9188444 C169.159536,39.0173237 168.674251,39.0824106 168.123301,39.0824106 C165.894159,39.0824106 164.03798,38.2150573 162.831248,36.5242138 C161.758726,35.0625892 161.343425,33.3290147 161.343425,30.4980191 C161.343425,27.6709853 161.758726,25.9374108 162.831248,24.4772011 C164.03798,22.7863576 165.894159,21.9204193 168.123301,21.9204193 C168.704491,21.9204193 169.224336,21.9699419 169.709621,22.0721 C170.404284,22.1915203 171.75617,22.5013903 173.050455,23.2450785 C173.468347,23.4850509 173.751742,23.7029504 173.948159,23.897928 L174,23.8501034 L174,20.8159235 C172.263343,19.4816428 170.529277,19 168.123301,19 C162.363244,19 158,22.8316354 158,30.4980191 C158,38.1694965 162.363244,42 168.123301,42 C170.529277,42 172.263343,41.5177912 174,40.1818126 L174,37.1159383 L173.96112,37.079433 C173.810782,37.1999852 173.631932,37.3273291 173.414778,37.4634455 C172.140365,38.263731 170.78128,38.6590629 170.062425,38.8271568" id="Fill-12" fill="#002039"></path>
                <path d="M54.9116331,19.0033785 C52.4557744,19.0033785 50.4638002,19.7314955 49.0735831,21.1014865 C47.4492695,22.6538603 46.7110757,24.7519683 46.7110757,27.3477408 L46.7110757,41.7630439 L50.0444371,41.7630439 L50.0444371,27.8948889 C50.0444371,25.3081649 50.9765145,23.5615323 52.5712429,22.6549913 C54.8475797,21.6992494 57.6495565,21.839783 59.790893,23.381129 L60,20.2520638 C59.5318071,19.926037 59.0693588,19.681729 58.4541016,19.4645664 C57.3904706,19.0899042 55.9721045,18.9782125 54.9116331,19.0033785 Z M37.396334,33.7944747 C37.396334,35.6621302 37.0249392,36.9399402 36.2379155,37.6680572 C34.8011664,39.0380483 33.0898206,39.1751888 31.1394954,39.1751888 C27.1656001,39.1751888 26.1444799,36.8214621 26.1444799,35.3530693 C26.1444799,33.8849592 26.0318838,31.7130497 28.4216785,30.5050824 C30.6233342,29.5807272 34.5532826,29.4893945 37.396334,32.0328557 L37.396334,33.7944747 Z M31.6056777,19.0183649 C27.8974747,19.0183649 25.3947967,20.4703575 24.7723586,21.4306237 L24.7522522,24.5051154 C26.0970861,22.6388738 28.6376791,21.84459 31.5597201,21.84459 C35.7260629,21.84459 37.396334,23.488862 37.396334,26.7703369 L37.396334,29.300791 C36.4203097,28.6114126 34.5096229,27.3692309 31.3276343,27.3692309 C28.8717756,27.3692309 26.4897363,27.9110065 24.8677206,29.5083397 C22.7522353,31.5911785 23.009885,35.3703179 23.009885,35.3703179 C23.009885,35.3703179 23.0297043,42 30.9183245,42 C33.9739298,42 35.5399346,41.511384 37.396334,39.685012 L37.5003131,41.7720923 L40.8359724,41.7720923 L40.7317061,26.496056 C40.7317061,21.615834 37.716601,19.0183649 31.6056777,19.0183649 L31.6056777,19.0183649 Z" id="Fill-13" fill="#002039"></path>
                <path d="M176.637566,45.9054509 L176.900031,45.9054509 C177.1751,45.9054509 177.437813,45.8296121 177.437813,45.5771486 C177.437813,45.3753274 177.312512,45.2363727 176.937349,45.2363727 C176.787581,45.2363727 176.699846,45.2493451 176.637566,45.2618186 L176.637566,45.9054509 Z M176.637566,47.0914307 L176.262651,47.0914307 L176.262651,44.9968816 C176.475193,44.9589622 176.687488,44.9337657 176.975162,44.9337657 C177.325116,44.9337657 177.487488,44.9968816 177.625394,45.0976675 C177.749954,45.1859798 177.837442,45.350131 177.837442,45.5394786 C177.837442,45.8044156 177.649861,45.9558438 177.424961,46.0314332 L177.424961,46.0566297 C177.61279,46.132219 177.712635,46.2966197 177.775162,46.5613072 C177.837442,46.8768866 177.875008,47.0158413 177.92493,47.0914307 L177.537658,47.0914307 C177.474884,47.0158413 177.424961,46.8264937 177.375039,46.5361108 C177.325116,46.3090932 177.1751,46.2080579 176.887674,46.2080579 L176.637566,46.2080579 L176.637566,47.0914307 Z M176.987519,44.3532493 C176.100031,44.3532493 175.424838,45.0849445 175.424838,45.9810403 C175.424838,46.9023325 176.100031,47.6340277 177.012728,47.6340277 C177.900216,47.6465012 178.562558,46.9023325 178.562558,45.9937633 C178.562558,45.0849445 177.900216,44.3532493 177.000124,44.3532493 L176.987519,44.3532493 Z M177.012728,44 C178.125116,44 179,44.8704004 179,45.9810403 C179,47.1166272 178.125116,48 177.000124,48 C175.887241,48 175,47.1166272 175,45.9810403 C175,44.8704004 175.887241,44 177.000124,44 L177.012728,44 L177.012728,44 Z" id="Fill-14" fill="#002039"></path>
            </g>
        </g>
    </g>
</svg>